<svg width="18" height="18" viewBox="0 0 18 18" fill="none" xmlns="http://www.w3.org/2000/svg">
<path d="M9.08801 15.1144L9.00001 15.2103L8.90321 15.1144C4.72321 10.9805 1.96001 8.24704 1.96001 5.47515C1.96001 3.5569 3.28001 2.11821 5.04001 2.11821C6.39521 2.11821 7.71521 3.07734 8.18161 4.38175H9.81841C10.2848 3.07734 11.6048 2.11821 12.96 2.11821C14.72 2.11821 16.04 3.5569 16.04 5.47515C16.04 8.24704 13.2768 10.9805 9.08801 15.1144ZM12.96 0.199951C11.4288 0.199951 9.95921 0.976845 9.00001 2.19494C8.04081 0.976845 6.57121 0.199951 5.04001 0.199951C2.32961 0.199951 0.200012 2.51145 0.200012 5.47515C0.200012 9.09107 3.19201 12.0548 7.72401 16.5339L9.00001 17.7999L10.276 16.5339C14.808 12.0548 17.8 9.09107 17.8 5.47515C17.8 2.51145 15.6704 0.199951 12.96 0.199951Z" fill="#07298B"/>
</svg>
