<svg width="24" height="25" viewBox="0 0 24 25" fill="none" xmlns="http://www.w3.org/2000/svg">
<g clip-path="url(#clip0_432_7812)">
<path d="M23.1213 9.56887L15.5363 1.98287C14.5975 1.04686 13.3259 0.52124 12.0003 0.52124C10.6746 0.52124 9.40301 1.04686 8.46426 1.98287L0.879256 9.56887C0.599682 9.84665 0.378026 10.1772 0.227139 10.5413C0.0762514 10.9053 -0.00086626 11.2958 0.00025622 11.6899V21.5069C0.00025622 22.3025 0.316327 23.0656 0.878936 23.6282C1.44155 24.1908 2.20461 24.5069 3.00026 24.5069H21.0003C21.7959 24.5069 22.559 24.1908 23.1216 23.6282C23.6842 23.0656 24.0003 22.3025 24.0003 21.5069V11.6899C24.0014 11.2958 23.9243 10.9053 23.7734 10.5413C23.6225 10.1772 23.4008 9.84665 23.1213 9.56887ZM15.0003 22.5069H9.00026V18.5729C9.00026 17.7772 9.31633 17.0142 9.87894 16.4515C10.4415 15.8889 11.2046 15.5729 12.0003 15.5729C12.7959 15.5729 13.559 15.8889 14.1216 16.4515C14.6842 17.0142 15.0003 17.7772 15.0003 18.5729V22.5069ZM22.0003 21.5069C22.0003 21.7721 21.8949 22.0264 21.7074 22.214C21.5198 22.4015 21.2655 22.5069 21.0003 22.5069H17.0003V18.5729C17.0003 17.2468 16.4735 15.975 15.5358 15.0373C14.5981 14.0997 13.3263 13.5729 12.0003 13.5729C10.6742 13.5729 9.40241 14.0997 8.46472 15.0373C7.52704 15.975 7.00026 17.2468 7.00026 18.5729V22.5069H3.00026C2.73504 22.5069 2.48069 22.4015 2.29315 22.214C2.10561 22.0264 2.00026 21.7721 2.00026 21.5069V11.6899C2.00118 11.4248 2.10645 11.1709 2.29326 10.9829L9.87826 3.39987C10.442 2.8388 11.2049 2.52381 12.0003 2.52381C12.7956 2.52381 13.5586 2.8388 14.1223 3.39987L21.7073 10.9859C21.8933 11.1731 21.9985 11.4259 22.0003 11.6899V21.5069Z" fill="#404040"/>
</g>
<defs>
<clipPath id="clip0_432_7812">
<rect width="24" height="24" fill="white" transform="translate(0 0.5)"/>
</clipPath>
</defs>
</svg>
