<svg width="24" height="25" viewBox="0 0 24 25" fill="none" xmlns="http://www.w3.org/2000/svg">
<g clip-path="url(#clip0_622_4299)">
<path d="M23 11.5C22.7348 11.5 22.4804 11.6054 22.2929 11.7929C22.1053 11.9804 22 12.2348 22 12.5C22.0081 14.8253 21.2084 17.0812 19.7375 18.8822C18.2666 20.6831 16.2159 21.9173 13.9359 22.3738C11.6558 22.8303 9.28801 22.4807 7.23715 21.3849C5.18629 20.289 3.57971 18.5148 2.692 16.3657C1.80429 14.2165 1.69058 11.8257 2.37028 9.60201C3.04999 7.37828 4.48093 5.45966 6.41852 4.17407C8.3561 2.88849 10.68 2.31575 12.9931 2.55377C15.3062 2.79179 17.4648 3.82578 19.1 5.479C19.0671 5.48797 19.0337 5.49498 19 5.5H16C15.7348 5.5 15.4804 5.60536 15.2929 5.79289C15.1053 5.98043 15 6.23478 15 6.5C15 6.76522 15.1053 7.01957 15.2929 7.20711C15.4804 7.39464 15.7348 7.5 16 7.5H19C19.7956 7.5 20.5587 7.18393 21.1213 6.62132C21.6839 6.05871 22 5.29565 22 4.5V1.5C22 1.23478 21.8946 0.98043 21.7071 0.792893C21.5195 0.605357 21.2652 0.5 21 0.5C20.7348 0.5 20.4804 0.605357 20.2929 0.792893C20.1053 0.98043 20 1.23478 20 1.5V3.565C17.9525 1.73453 15.3389 0.662166 12.5958 0.527103C9.85275 0.392039 7.14641 1.20246 4.92905 2.82293C2.71168 4.44341 1.1176 6.77578 0.413192 9.4303C-0.291217 12.0848 -0.0632888 14.9007 1.05889 17.4074C2.18107 19.914 4.12952 21.9596 6.57865 23.2024C9.02778 24.4451 11.8292 24.8097 14.5149 24.2353C17.2005 23.6608 19.6076 22.182 21.334 20.0461C23.0604 17.9101 24.0015 15.2464 24 12.5C24 12.2348 23.8946 11.9804 23.7071 11.7929C23.5195 11.6054 23.2652 11.5 23 11.5Z" fill="#404040"/>
<path d="M12.0001 6.5C11.7349 6.5 11.4806 6.60536 11.293 6.79289C11.1055 6.98043 11.0001 7.23478 11.0001 7.5V12.5C11.0002 12.7652 11.1056 13.0195 11.2931 13.207L14.2931 16.207C14.4817 16.3892 14.7343 16.49 14.9965 16.4877C15.2587 16.4854 15.5095 16.3802 15.6949 16.1948C15.8803 16.0094 15.9855 15.7586 15.9878 15.4964C15.9901 15.2342 15.8893 14.9816 15.7071 14.793L13.0001 12.086V7.5C13.0001 7.23478 12.8948 6.98043 12.7072 6.79289C12.5197 6.60536 12.2653 6.5 12.0001 6.5Z" fill="#404040"/>
</g>
<defs>
<clipPath id="clip0_622_4299">
<rect width="24" height="24" fill="white" transform="translate(0 0.5)"/>
</clipPath>
</defs>
</svg>
