<svg width="19" height="18" viewBox="0 0 19 18" fill="none" xmlns="http://www.w3.org/2000/svg">
<path d="M17.25 3.9375H2.25C2.00136 3.9375 1.7629 3.83873 1.58709 3.66291C1.41127 3.4871 1.3125 3.24864 1.3125 3C1.3125 2.75136 1.41127 2.5129 1.58709 2.33709C1.7629 2.16127 2.00136 2.0625 2.25 2.0625H15C15.1492 2.0625 15.2923 2.00324 15.3977 1.89775C15.5032 1.79226 15.5625 1.64918 15.5625 1.5C15.5625 1.35082 15.5032 1.20774 15.3977 1.10225C15.2923 0.996763 15.1492 0.9375 15 0.9375H2.25C1.70299 0.9375 1.17839 1.1548 0.791592 1.54159C0.404798 1.92839 0.1875 2.45299 0.1875 3V15C0.1875 15.547 0.404798 16.0716 0.791592 16.4584C1.17839 16.8452 1.70299 17.0625 2.25 17.0625H17.25C17.5981 17.0625 17.9319 16.9242 18.1781 16.6781C18.4242 16.4319 18.5625 16.0981 18.5625 15.75V5.25C18.5625 4.9019 18.4242 4.56806 18.1781 4.32192C17.9319 4.07578 17.5981 3.9375 17.25 3.9375ZM17.4375 15.75C17.4375 15.7997 17.4177 15.8474 17.3826 15.8826C17.3474 15.9177 17.2997 15.9375 17.25 15.9375H2.25C2.00136 15.9375 1.7629 15.8387 1.58709 15.6629C1.41127 15.4871 1.3125 15.2486 1.3125 15V4.83656C1.60255 4.98544 1.92397 5.0629 2.25 5.0625H17.25C17.2997 5.0625 17.3474 5.08225 17.3826 5.11742C17.4177 5.15258 17.4375 5.20027 17.4375 5.25V15.75ZM14.8125 10.125C14.8125 10.3104 14.7575 10.4917 14.6545 10.6458C14.5515 10.8 14.4051 10.9202 14.2338 10.9911C14.0625 11.0621 13.874 11.0807 13.6921 11.0445C13.5102 11.0083 13.3432 10.919 13.2121 10.7879C13.081 10.6568 12.9917 10.4898 12.9555 10.3079C12.9193 10.126 12.9379 9.93754 13.0089 9.76624C13.0798 9.59493 13.2 9.44851 13.3542 9.3455C13.5083 9.24248 13.6896 9.1875 13.875 9.1875C14.1236 9.1875 14.3621 9.28627 14.5379 9.46209C14.7137 9.6379 14.8125 9.87636 14.8125 10.125Z" fill="#07298B"/>
</svg>
